<?xml version="1.0" encoding="utf-8"?>
<!-- Generator: Adobe Illustrator 22.0.1, SVG Export Plug-In . SVG Version: 6.00 Build 0)  -->
<svg version="1.0" id="Capa_1" xmlns="http://www.w3.org/2000/svg" xmlns:xlink="http://www.w3.org/1999/xlink" x="0px" y="0px"
	 viewBox="0 0 534 151.2" style="enable-background:new 0 0 534 151.2;" xml:space="preserve">
<style type="text/css">
	.st0{fill:#C12126;}
	.st1{fill:#AEB0B3;}
	.st2{fill:#0E4E8F;}
	.st3{fill:#A91F23;}
	.st4{fill:#EA1F27;}
</style>
<g>
	<g>
		<path class="st0" d="M160.3,84.4l-0.3-2h-2.5l-1,2h-1.1l3.7-7.5h1l1.1,7.5H160.3z M159.5,78.4l-1.5,3.1h1.8L159.5,78.4z"/>
		<path class="st0" d="M162.5,84.1l0.3-1.2c0.4,0.4,1,0.7,1.9,0.7c0.9,0,1.7-0.4,1.7-1.3c0-0.8-0.6-1.1-1.4-1.4
			c-0.8-0.3-1.8-0.7-1.8-1.8c0-1,0.8-2.5,2.8-2.5c0.9,0,1.7,0.3,2,0.5l-0.3,1.1c-0.6-0.4-1.2-0.7-1.8-0.7c-0.7,0-1.6,0.4-1.6,1.2
			c0,0.6,0.5,0.8,1.2,1.1c1,0.4,2,0.8,2,2.1c0,1.1-0.7,2.4-3,2.4C163.6,84.6,162.9,84.4,162.5,84.1z"/>
		<path class="st0" d="M168.9,84.4l1.3-7.5h4.2l-0.2,0.9h-3.2l-0.4,2.2h2.5L173,81h-2.5l-0.4,2.5h3.2l-0.2,0.9L168.9,84.4
			L168.9,84.4z"/>
		<path class="st0" d="M174.6,84.1l0.3-1.2c0.4,0.4,1,0.7,1.9,0.7c0.9,0,1.7-0.4,1.7-1.3c0-0.8-0.6-1.1-1.4-1.4
			c-0.8-0.3-1.8-0.7-1.8-1.8c0-1,0.8-2.5,2.8-2.5c0.9,0,1.7,0.3,2,0.5l-0.3,1.1c-0.6-0.4-1.2-0.7-1.8-0.7c-0.7,0-1.6,0.4-1.6,1.2
			c0,0.6,0.5,0.8,1.2,1.1c1,0.4,2,0.8,2,2.1c0,1.1-0.7,2.4-3,2.4C175.7,84.6,174.9,84.4,174.6,84.1z"/>
		<path class="st0" d="M181.2,81.4c0-2.7,1.9-4.6,4.1-4.6c1.7,0,2.7,1.2,2.7,3.2c0,2.7-1.9,4.6-4.1,4.6
			C182.2,84.6,181.2,83.4,181.2,81.4z M182.3,81.4c0,1.3,0.5,2.3,1.8,2.3c1.7,0,2.8-1.8,2.8-3.6c0-1.3-0.5-2.3-1.8-2.3
			C183.4,77.7,182.3,79.5,182.3,81.4z"/>
		<path class="st0" d="M192.9,84.4l-0.9-2.9h-1.4l-0.5,2.9h-1l1.3-7.5h2.3c1.2,0,2,0.4,2,1.7c0,1.2-0.7,2.1-1.6,2.6l1,3.2
			L192.9,84.4L192.9,84.4L192.9,84.4z M191.2,77.8l-0.5,2.8h1.3c0.8,0,1.5-0.5,1.5-1.6c0-0.7-0.3-1.1-1.2-1.1H191.2z"/>
		<path class="st0" d="M195.4,84.4l1.3-7.5h1l-1.3,7.5H195.4z M196.6,75.8l0.1-0.4l2-1l-0.1,0.8L196.6,75.8z"/>
		<path class="st0" d="M202.7,84.4l-0.3-2h-2.5l-1,2h-1.1l3.7-7.5h1l1.1,7.5H202.7z M201.9,78.4l-1.5,3.1h1.8L201.9,78.4z"/>
		<path class="st0" d="M210.1,77.9l-0.4,2.2h2.4l-0.2,0.9h-2.4l-0.6,3.5h-1l1.3-7.5h4.1l-0.2,0.9L210.1,77.9L210.1,77.9z"/>
		<path class="st0" d="M213.5,84.4l1.3-7.5h1l-1.3,7.5H213.5z"/>
		<path class="st0" d="M216.4,84.1l0.3-1.2c0.4,0.4,1,0.7,1.9,0.7c0.9,0,1.7-0.4,1.7-1.3c0-0.8-0.6-1.1-1.4-1.4
			c-0.8-0.3-1.8-0.7-1.8-1.8c0-1,0.8-2.5,2.8-2.5c0.9,0,1.7,0.3,2,0.5l-0.3,1.1c-0.6-0.4-1.2-0.7-1.8-0.7c-0.7,0-1.6,0.4-1.6,1.2
			c0,0.6,0.5,0.8,1.2,1.1c1,0.4,2,0.8,2,2.1c0,1.1-0.7,2.4-3,2.4C217.6,84.6,216.8,84.4,216.4,84.1z"/>
		<path class="st0" d="M223,81.4c0-2.6,1.9-4.6,4.1-4.6c0.7,0,1.4,0.2,1.8,0.4l-0.3,0.9c-0.5-0.2-1-0.5-1.7-0.5
			c-1.8,0-2.9,1.8-2.9,3.6c0,1.4,0.6,2.3,1.8,2.3c0.6,0,1.2-0.2,1.8-0.4l-0.1,0.9c-0.5,0.2-1.3,0.4-1.9,0.4
			C224.1,84.6,223,83.4,223,81.4z"/>
		<path class="st0" d="M233.4,84.4l-0.3-2h-2.5l-1,2h-1.1l3.7-7.5h1l1.1,7.5H233.4z M232.6,78.4l-1.5,3.1h1.8L232.6,78.4z"/>
		<path class="st0" d="M235.8,84.4l1.3-7.5h1l-1.2,6.6h3l-0.2,0.9H235.8z"/>
		<path class="st0" d="M241,85.6l-0.2-0.1l0.5-0.9l-0.3-0.1l0.2-0.9h1l-0.2,0.9L241,85.6z"/>
		<path class="st0" d="M247,81.4c0-2.6,1.9-4.6,4.1-4.6c0.7,0,1.4,0.2,1.8,0.4l-0.3,0.9c-0.5-0.2-1-0.5-1.7-0.5
			c-1.8,0-2.9,1.8-2.9,3.6c0,1.4,0.6,2.3,1.8,2.3c0.6,0,1.2-0.2,1.8-0.4l-0.1,0.9c-0.5,0.2-1.3,0.4-1.9,0.4
			C248,84.6,247,83.4,247,81.4z"/>
		<path class="st0" d="M253.3,81.4c0-2.7,1.9-4.6,4.1-4.6c1.7,0,2.7,1.2,2.7,3.2c0,2.7-1.9,4.6-4.1,4.6
			C254.3,84.6,253.3,83.4,253.3,81.4z M254.4,81.4c0,1.3,0.5,2.3,1.8,2.3c1.7,0,2.8-1.8,2.8-3.6c0-1.3-0.5-2.3-1.8-2.3
			C255.5,77.7,254.4,79.5,254.4,81.4z"/>
		<path class="st0" d="M265.5,84.4l-2.3-5.9l-1,5.9h-1l1.3-7.5h1.1l2.2,5.6l1-5.6h1l-1.3,7.5H265.5z"/>
		<path class="st0" d="M272.1,77.9l-1.2,6.6h-1l1.2-6.6h-1.9l0.2-0.9h4.9l-0.2,0.9H272.1z"/>
		<path class="st0" d="M277.9,84.4l-0.3-2h-2.5l-1,2h-1.1l3.7-7.5h1l1.1,7.5H277.9z M277.1,78.4l-1.5,3.1h1.8L277.1,78.4z"/>
		<path class="st0" d="M280.3,84.4l1.3-7.5h1.6c1.5,0,2.3,0.2,2.3,1.6c0,0.9-0.4,1.4-0.9,1.9c0.6,0.3,0.9,0.7,0.9,1.5
			c0,2.1-1.6,2.5-2.8,2.5L280.3,84.4C280.3,84.4,280.3,84.4,280.3,84.4z M282,81l-0.4,2.5h1c1.1,0,1.9-0.2,1.9-1.4
			c0-0.7-0.2-1.1-1.1-1.1H282z M282.5,77.9l-0.4,2.2h1.1c0.5,0,1.2-0.1,1.2-1.3c0-0.7-0.2-0.9-1.1-0.9L282.5,77.9L282.5,77.9z"/>
		<path class="st0" d="M286.8,84.4l1.3-7.5h1l-1.2,6.6h3l-0.2,0.9H286.8z"/>
		<path class="st0" d="M292.2,84.4l1.3-7.5h4.2l-0.2,0.9h-3.2l-0.4,2.2h2.5l-0.2,0.9h-2.5l-0.4,2.5h3.2l-0.2,0.9H292.2z"/>
		<path class="st0" d="M304.1,81l-0.6,3.5h-1l0.6-3.5l-1.6-4h1.1l1.2,3.1L306,77h1.1L304.1,81z"/>
		<path class="st0" d="M314.1,84.4l-0.3-2h-2.5l-1,2h-1.1l3.7-7.5h1l1.1,7.5H314.1z M313.3,78.4l-1.5,3.1h1.8L313.3,78.4z"/>
		<path class="st0" d="M316.5,84.4l1.3-7.5h2.5c1.7,0,2.8,1.1,2.8,3.1c0,2.6-1.8,4.4-4.1,4.4L316.5,84.4L316.5,84.4L316.5,84.4z
			 M318.7,77.9l-1,5.6h1.5c1.8,0,2.8-1.6,2.8-3.4c0-1.4-0.6-2.2-1.8-2.2H318.7z"/>
		<path class="st0" d="M329.7,84.4l0.4-5.5l-2.5,3.7l-1.2-3.7l-1.6,5.5h-1.1L326,77h0.9l1,3.7l2.3-3.7h0.9l-0.4,7.5H329.7z"/>
		<path class="st0" d="M332.6,84.4l1.3-7.5h1l-1.3,7.5H332.6z"/>
		<path class="st0" d="M340.1,84.4l-2.3-5.9l-1,5.9h-1L337,77h1.1l2.2,5.6l1-5.6h1l-1.3,7.5H340.1z"/>
		<path class="st0" d="M343.1,84.4l1.3-7.5h1l-1.3,7.5H343.1z"/>
		<path class="st0" d="M346,84.1l0.3-1.2c0.4,0.4,1,0.7,1.9,0.7c0.9,0,1.7-0.4,1.7-1.3c0-0.8-0.6-1.1-1.4-1.4
			c-0.8-0.3-1.8-0.7-1.8-1.8c0-1,0.8-2.5,2.8-2.5c0.9,0,1.7,0.3,2,0.5l-0.3,1.1c-0.6-0.4-1.2-0.7-1.8-0.7c-0.7,0-1.6,0.4-1.6,1.2
			c0,0.6,0.5,0.8,1.2,1.1c1,0.4,2,0.8,2,2.1c0,1.1-0.7,2.4-3,2.4C347.2,84.6,346.4,84.4,346,84.1z"/>
		<path class="st0" d="M356,77.9l-1.1,6.6h-1l1.2-6.6h-1.9l0.2-0.9h4.9l-0.2,0.9H356z"/>
		<path class="st0" d="M362.3,84.4l-0.9-2.9H360l-0.5,2.9h-1l1.3-7.5h2.3c1.2,0,2,0.4,2,1.7c0,1.2-0.7,2.1-1.6,2.6l1,3.2L362.3,84.4
			L362.3,84.4L362.3,84.4z M360.7,77.8l-0.5,2.8h1.3c0.8,0,1.5-0.5,1.5-1.6c0-0.7-0.3-1.1-1.1-1.1H360.7z"/>
		<path class="st0" d="M369,84.4l-0.3-2h-2.5l-1,2h-1.1l3.7-7.5h1l1.1,7.5H369z M368.2,78.4l-1.5,3.1h1.8L368.2,78.4z"/>
		<path class="st0" d="M374.3,77.9l-1.2,6.6h-1l1.2-6.6h-2l0.2-0.9h4.9l-0.2,0.9H374.3z"/>
		<path class="st0" d="M376.7,84.4l1.3-7.5h1l-1.3,7.5H376.7z"/>
		<path class="st0" d="M382.7,84.4h-1.1l-1.2-7.5h1.1l0.9,6.3l3.1-6.3h1.1L382.7,84.4z"/>
		<path class="st0" d="M390.2,84.4l-0.3-2h-2.5l-1,2h-1.1l3.7-7.5h1l1.1,7.5H390.2z M389.5,78.4l-1.5,3.1h1.8L389.5,78.4z"/>
	</g>
	<g>
		<g>
			<path class="st1" d="M247.8,33.9l0.5-1.7c0.5,0.5,1.5,1.1,2.7,1.1c1.3,0,2.4-0.6,2.4-1.8c0-1.1-0.9-1.5-2-1.9
				c-1.1-0.4-2.5-1-2.5-2.5c0-1.3,1.1-3.4,4-3.4c1.2,0,2.4,0.4,2.9,0.7l-0.4,1.5c-0.9-0.5-1.6-0.9-2.5-0.9c-1,0-2.3,0.5-2.3,1.7
				c0,0.8,0.7,1.2,1.7,1.6c1.4,0.5,2.9,1.1,2.9,2.9c0,1.6-1,3.4-4.3,3.4C249.4,34.5,248.3,34.2,247.8,33.9z"/>
			<path class="st1" d="M259.6,34.5h-1.1c-1.1,0-1.5-0.6-1.5-1.4c0-0.2,0-0.3,0.9-5.1h-1.1l0.3-1h1l0.3-1.8l1.4-0.1l-0.3,2h1.7
				l-0.2,1h-1.7c-0.7,4.3-0.8,4.6-0.8,4.8c0,0.5,0.3,0.6,1.1,0.6h0.4L259.6,34.5z"/>
			<path class="st1" d="M266,28.2h-0.5c-0.6,0-1.3,0.5-1.6,0.9l-0.9,5.2h-1.4l1.3-7.3h1.2l-0.1,1.2c0.8-1,1.6-1.5,2.4-1.5h0.2
				L266,28.2z"/>
			<path class="st1" d="M273,32.2c0,0.2-0.1,0.5-0.1,0.6c0,0.5,0.2,0.6,0.7,0.6l-0.4,1.1c-0.9,0-1.5,0-1.7-1.1
				c-0.6,0.7-1.5,1.1-2.3,1.1c-1.5,0-2.5-1.3-2.5-3.1c0-2.3,1.6-4.6,3.9-4.6c0.6,0,1.3,0.2,1.7,0.9l0.3-0.8h1.2L273,32.2z
				 M268.3,31.3c0,1.1,0.4,2,1.5,2c1.1,0,2.4-1.1,2.4-3.1c0-1.5-0.7-2.1-1.5-2.1C269.2,28,268.3,29.5,268.3,31.3z"/>
			<path class="st1" d="M278.5,34.5h-1.1c-1.1,0-1.5-0.6-1.5-1.4c0-0.2,0-0.3,0.9-5.1h-1.1l0.3-1h1l0.3-1.8l1.4-0.1l-0.3,2h1.7
				l-0.2,1h-1.7c-0.8,4.3-0.8,4.6-0.8,4.8c0,0.5,0.3,0.6,1.1,0.6h0.4L278.5,34.5z"/>
			<path class="st1" d="M283.4,31.2c-0.6,0-1.1-0.1-1.3-0.1c0,1.8,0.8,2.2,1.9,2.2c0.6,0,1.4-0.1,2-0.4l-0.1,1.1
				c-0.6,0.3-1.4,0.6-2.3,0.6c-2,0-3-1.4-3-3.2c0-2.3,1.6-4.5,4-4.5c1.4,0,2.2,0.8,2.2,1.9C286.8,29.8,286,31.2,283.4,31.2z
				 M282.2,30.1c0.3,0,0.4,0.1,1.1,0.1c1.8,0,2.3-0.8,2.3-1.4c0-0.6-0.5-0.8-1.1-0.8C283.6,28,282.7,28.7,282.2,30.1z"/>
			<path class="st1" d="M287.1,36.2c0-0.5,0.3-1.5,1.5-2c-0.4-0.2-0.5-0.6-0.5-0.8c0-0.3,0.3-0.9,0.9-1.2c-0.6-0.6-0.7-1.3-0.7-2
				c0-1.7,1.2-3.4,3.3-3.4c0.6,0,1.1,0.2,1.6,0.5c0.4-0.2,1-0.4,1.6-0.4h0.2l-0.3,0.9h-0.4c-0.1,0-0.4,0-0.7,0.1
				c0.2,0.4,0.3,0.9,0.3,1.3c0,1.6-1.3,3.4-3.2,3.4c-0.3,0-0.6,0-0.9-0.1c-0.2,0.1-0.3,0.3-0.3,0.5c0,0.3,0.5,0.5,1.8,0.7
				c0.9,0.2,2.4,0.6,2.4,1.8c0,1.2-1.4,2.5-3.7,2.5C287.9,38.1,287.1,37,287.1,36.2z M289.6,34.5c-0.7,0.2-1.3,0.9-1.3,1.4
				c0,0.6,0.6,1,1.7,1c1.3,0,2.2-0.7,2.2-1.3C292.3,34.9,290.5,34.8,289.6,34.5z M289.6,30.1c0,0.9,0.5,1.5,1.2,1.5
				c1.1,0,1.8-1.1,1.8-2.3c0-0.9-0.4-1.4-1.2-1.4C290.3,27.9,289.6,29,289.6,30.1z"/>
			<path class="st1" d="M296.5,38h-1.5l2.2-4l-1.5-7h1.5l1,5.5l2.8-5.5h1.5L296.5,38z"/>
			<path class="st1" d="M307.1,34.3l1.8-10.5h1.4l-1.8,10.5C308.6,34.3,307.1,34.3,307.1,34.3z"/>
			<path class="st1" d="M315.7,34.3c0.8-4.4,0.8-4.7,0.8-5c0-0.9-0.4-1.3-1.3-1.3c-0.7,0-1.4,0.3-1.8,1l-0.9,5.3h-1.4l1.3-7.3h1.1
				l0,0.8c0.8-0.7,1.5-0.9,2.2-0.9c1.6,0,2.2,0.9,2.2,2.4c0,0.3,0,0.7-0.8,5.1C317.1,34.3,315.7,34.3,315.7,34.3z"/>
			<path class="st1" d="M322.6,34.5h-1.1c-1.1,0-1.5-0.6-1.5-1.4c0-0.2,0-0.3,0.9-5.1h-1.1l0.3-1h1l0.3-1.8l1.4-0.1l-0.3,2h1.7
				l-0.2,1h-1.7c-0.7,4.3-0.8,4.6-0.8,4.8c0,0.5,0.3,0.6,1.1,0.6h0.4L322.6,34.5z"/>
			<path class="st1" d="M327.5,31.2c-0.6,0-1.1-0.1-1.3-0.1c0,1.8,0.8,2.2,1.9,2.2c0.6,0,1.4-0.1,2-0.4l-0.1,1.1
				c-0.6,0.3-1.4,0.6-2.3,0.6c-2,0-3-1.4-3-3.2c0-2.3,1.6-4.5,4-4.5c1.4,0,2.2,0.8,2.2,1.9C330.9,29.8,330.1,31.2,327.5,31.2z
				 M326.3,30.1c0.3,0,0.4,0.1,1.1,0.1c1.8,0,2.3-0.8,2.3-1.4c0-0.6-0.5-0.8-1.1-0.8C327.6,28,326.8,28.7,326.3,30.1z"/>
			<path class="st1" d="M334.1,34.5h-0.5c-1.1,0-1.4-0.6-1.4-1.4c0-0.2,0-0.3,1.7-10h1.4c-1.6,9.2-1.7,9.5-1.7,9.7
				c0,0.5,0.2,0.6,0.8,0.6L334.1,34.5z"/>
			<path class="st1" d="M338.2,34.5h-0.5c-1.1,0-1.4-0.6-1.4-1.4c0-0.2,0-0.3,1.7-10h1.4c-1.6,9.2-1.7,9.5-1.7,9.7
				c0,0.5,0.2,0.6,0.8,0.6L338.2,34.5z"/>
			<path class="st1" d="M340.2,34.3l1.3-7.3h1.4l-1.3,7.3H340.2z M341.8,25.3l0.3-1.5h1.4l-0.2,1.5H341.8z"/>
			<path class="st1" d="M343.3,36.2c0-0.5,0.3-1.5,1.5-2c-0.4-0.2-0.5-0.6-0.5-0.8c0-0.3,0.3-0.9,0.9-1.2c-0.6-0.6-0.7-1.3-0.7-2
				c0-1.7,1.2-3.4,3.3-3.4c0.6,0,1.1,0.2,1.6,0.5c0.4-0.2,1-0.4,1.6-0.4h0.2l-0.3,0.9h-0.4c-0.1,0-0.4,0-0.7,0.1
				c0.2,0.4,0.3,0.9,0.3,1.3c0,1.6-1.3,3.4-3.2,3.4c-0.3,0-0.6,0-0.9-0.1c-0.2,0.1-0.3,0.3-0.3,0.5c0,0.3,0.5,0.5,1.8,0.7
				c0.9,0.2,2.4,0.6,2.4,1.8c0,1.2-1.4,2.5-3.7,2.5C344,38.1,343.3,37,343.3,36.2z M345.8,34.5c-0.7,0.2-1.3,0.9-1.3,1.4
				c0,0.6,0.6,1,1.7,1c1.3,0,2.2-0.7,2.2-1.3C348.4,34.9,346.6,34.8,345.8,34.5z M345.7,30.1c0,0.9,0.4,1.5,1.2,1.5
				c1.1,0,1.8-1.1,1.8-2.3c0-0.9-0.4-1.4-1.2-1.4C346.4,27.9,345.7,29,345.7,30.1z"/>
			<path class="st1" d="M354.5,31.2c-0.6,0-1.1-0.1-1.3-0.1c0,1.8,0.8,2.2,1.9,2.2c0.6,0,1.4-0.1,2-0.4l-0.1,1.1
				c-0.6,0.3-1.4,0.6-2.3,0.6c-2,0-3-1.4-3-3.2c0-2.3,1.6-4.5,4-4.5c1.4,0,2.2,0.8,2.2,1.9C357.9,29.8,357.1,31.2,354.5,31.2z
				 M353.3,30.1c0.3,0,0.4,0.1,1.1,0.1c1.8,0,2.3-0.8,2.3-1.4c0-0.6-0.5-0.8-1.1-0.8C354.6,28,353.8,28.7,353.3,30.1z"/>
			<path class="st1" d="M363.6,34.3c0.8-4.4,0.8-4.7,0.8-5c0-0.9-0.4-1.3-1.3-1.3c-0.7,0-1.4,0.3-1.8,1l-0.9,5.3H359l1.3-7.3h1.2
				l0,0.8c0.8-0.7,1.5-0.9,2.2-0.9c1.6,0,2.2,0.9,2.2,2.4c0,0.3,0,0.7-0.8,5.1C365,34.3,363.6,34.3,363.6,34.3z"/>
			<path class="st1" d="M370.4,34.5h-1.1c-1.1,0-1.5-0.6-1.5-1.4c0-0.2,0-0.3,0.9-5.1h-1.1l0.3-1h1l0.3-1.8l1.4-0.1l-0.3,2h1.7
				l-0.2,1H370c-0.7,4.3-0.8,4.6-0.8,4.8c0,0.5,0.3,0.6,1.1,0.6h0.4L370.4,34.5z"/>
			<path class="st1" d="M376.3,33.9l0.5-1.7c0.5,0.5,1.5,1.1,2.7,1.1c1.3,0,2.4-0.6,2.4-1.8c0-1.1-0.9-1.5-2-1.9
				c-1.1-0.4-2.5-1-2.5-2.5c0-1.3,1.1-3.4,4-3.4c1.2,0,2.4,0.4,2.9,0.7l-0.4,1.5c-0.9-0.5-1.6-0.9-2.5-0.9c-1,0-2.3,0.5-2.3,1.7
				c0,0.8,0.7,1.2,1.7,1.6c1.3,0.5,2.9,1.1,2.9,2.9c0,1.6-1,3.4-4.3,3.4C377.9,34.5,376.8,34.2,376.3,33.9z"/>
			<path class="st1" d="M385,34.3l0.2-1.3h1.4l-0.2,1.3H385z"/>
			<path class="st1" d="M389,30.1c0-3.7,2.7-6.4,5.8-6.4c1,0,1.9,0.3,2.6,0.6l-0.4,1.3c-0.7-0.3-1.4-0.6-2.4-0.6c-2.5,0-4,2.5-4,5.1
				c0,1.9,0.8,3.3,2.6,3.3c0.9,0,1.7-0.3,2.5-0.6l-0.1,1.3c-0.7,0.3-1.8,0.6-2.7,0.6C390.5,34.5,389,32.9,389,30.1z"/>
			<path class="st1" d="M397.4,34.3l0.2-1.3h1.4l-0.2,1.3H397.4z"/>
		</g>
	</g>
	<g>
		<path class="st2" d="M86.2,68V41.6h25.3v4.5H91.9V52h11.4v4.5H91.9V63h19.8v5L86.2,68L86.2,68z"/>
		<path class="st2" d="M119.9,68V41.6h3.9l17.4,15.5c1.2,1.1,2.2,2.1,2.8,2.9c-0.2-2.5-0.2-4-0.2-4.6V41.6h5.2V68H145l-18.2-16.3
			c-0.8-0.7-1.5-1.4-2.1-2.1c0.2,1.7,0.2,3.1,0.2,4.2V68C125.1,68,119.9,68,119.9,68z"/>
		<path class="st2" d="M170.7,46.3V68h-5.8V46.3h-11.3v-4.7h28.5v4.7H170.7z"/>
		<path class="st2" d="M186.7,68V41.6H212v4.5h-19.5V52h11.4v4.5h-11.4V63h19.8v5L186.7,68L186.7,68z"/>
		<path class="st2" d="M220.5,68V41.6h21.2c3.7,0,5.6,1.7,5.6,5.1v6.2c0,3.4-1.9,5.1-5.6,5.1h-3.3l11.4,10h-8.2l-10-10h-5.5v10
			L220.5,68C220.5,68,220.5,68,220.5,68z M239.1,46.1h-12.9v7.4h12.9c0.9,0,1.5-0.1,1.9-0.3c0.5-0.3,0.7-0.9,0.7-1.8v-3.2
			c0-0.9-0.2-1.5-0.7-1.8C240.6,46.2,240,46.1,239.1,46.1z"/>
		<path class="st2" d="M256.5,68V41.6h21.2c3.7,0,5.6,1.7,5.6,5.1v5.9c0,3.4-1.9,5.1-5.6,5.1h-15.5V68L256.5,68L256.5,68z
			 M275.1,46.1h-12.9v7.1h12.9c0.9,0,1.5-0.1,1.9-0.3c0.5-0.3,0.7-0.9,0.7-1.8v-2.9c0-0.9-0.2-1.5-0.7-1.8
			C276.6,46.2,276,46.1,275.1,46.1z"/>
		<path class="st2" d="M289.7,68V41.6h21.2c3.7,0,5.6,1.7,5.6,5.1v6.2c0,3.4-1.8,5.1-5.6,5.1h-3.3L319,68h-8.2l-10-10h-5.5v10
			L289.7,68L289.7,68z M308.3,46.1h-12.9v7.4h12.9c0.9,0,1.5-0.1,1.9-0.3c0.5-0.3,0.7-0.9,0.7-1.8v-3.2c0-0.9-0.2-1.5-0.7-1.8
			C309.8,46.2,309.2,46.1,308.3,46.1z"/>
		<path class="st2" d="M325.7,68V41.6h5.7V68H325.7z"/>
		<path class="st2" d="M363.1,46.2h-16.2v5.7h15.5c2.4,0,4,0.4,4.9,1.3c0.9,0.9,1.3,2.5,1.3,5v3.6c0,2.5-0.4,4.1-1.3,5
			c-0.9,0.9-2.5,1.3-4.9,1.3h-15.3c-2.4,0-4-0.4-4.9-1.3c-0.9-0.9-1.3-2.5-1.3-5V61l5.1-1.1V63h17.5v-6H348c-2.4,0-4-0.4-4.8-1.3
			c-0.9-0.9-1.3-2.5-1.3-5v-2.9c0-2.5,0.4-4.1,1.3-5c0.9-0.9,2.5-1.3,4.8-1.3h14c2.3,0,3.9,0.4,4.8,1.2c0.9,0.8,1.4,2.3,1.4,4.6v0.6
			l-5.1,1.3L363.1,46.2L363.1,46.2z"/>
		<path class="st2" d="M378.1,68V41.6h25.3v4.5h-19.5V52h11.4v4.5h-11.4V63h19.8v5L378.1,68L378.1,68L378.1,68z"/>
	</g>
	<g>
		<path class="st3" d="M149.8,77.7c-24.1,53.2,74.9,68.4,156.5,47.3c61.4-15.9,117.8-51,113.2-79.7c-3.1-19.5-25.2-29.9-46.5-35.1
			C327.3-1,265.7,12.1,265.7,12.1S322.9-1.7,372,4.6c28.8,3.7,58.2,17.1,62.7,36.9c4,17.7-1.1,37-37.7,62.3
			c-44.7,31-103.1,43.4-150.9,43.4C101.1,147,149.8,77.7,149.8,77.7z"/>
		<path class="st4" d="M419.6,21.4c-12.2-8.8-30-14.6-47.6-16.9c-49.1-6.3-106.3,7.6-106.3,7.6S327.3-1,373,10.2
			c21.3,5.2,43.4,15.6,46.5,35.1c1.1,6.6-1.1,13.6-5.9,20.6c0,0,0,0,0,0C428.4,48.6,425,32.2,419.6,21.4z"/>
		<path class="st4" d="M190.9,129.8c-33.4-7.5-53.4-24.8-41.1-52.1c0,0-15.3,22.8-2.8,41.5C156.1,127,177.2,130.5,190.9,129.8z"/>
	</g>
</g>
</svg>
