<?xml version="1.0" encoding="utf-8"?>
<!-- Generator: Adobe Illustrator 22.0.1, SVG Export Plug-In . SVG Version: 6.00 Build 0)  -->
<svg version="1.0" id="Capa_1" xmlns="http://www.w3.org/2000/svg" xmlns:xlink="http://www.w3.org/1999/xlink" x="0px" y="0px"
	 viewBox="0 0 534 151.2" style="enable-background:new 0 0 534 151.2;" xml:space="preserve">
<style type="text/css">
	.st0{fill:#121212;}
	.st1{fill:#FBC900;}
</style>
<g>
	<g>
		<path class="st0" d="M23.3,68.2l6.6,46.3l6.4-46.3h16.3l-14.7,76.1H21.6L7,68.2H23.3z"/>
		<path class="st0" d="M54.3,68.2h16.3v76.1H54.3V68.2z"/>
		<path class="st0" d="M76.1,68.2h16.3v62h16.3v14.1H76.1V68.2z"/>
		<path class="st0" d="M114.2,68.2h16.3v62h16.3v14.1h-32.7V68.2z"/>
		<path class="st0" d="M165.9,136.1l-1.1,8.2h-16.3l14.7-76.1h16.3l14.7,76.1H178l-1.1-8.2H165.9z M174.7,122l-3.4-23.9L168,122
			H174.7z"/>
		<path class="st0" d="M212.1,113.3v31.1h-16.3V68.2h21.8c14.6,0,21.8,6.6,21.8,19.5v5.9c0,5.3-1.1,9.5-3.5,12.5
			c2.2,3,3.5,7.4,3.5,12.5v17.5c0,2.9,0.5,5.6,1.6,8.2h-16.3c-1.1-2.6-1.6-5.3-1.6-8.2v-17.5c0-3.7-1.8-5.4-5.4-5.4L212.1,113.3
			L212.1,113.3z M217.5,99.1c3.7,0,5.4-1.8,5.4-5.4v-5.9c0-3.7-1.8-5.4-5.4-5.4h-5.4v16.8H217.5L217.5,99.1z"/>
		<path class="st0" d="M261.1,113.3v31.1h-16.3V68.2h21.8c14.6,0,21.8,6.6,21.8,19.5v5.9c0,5.3-1.1,9.5-3.5,12.5
			c2.2,3,3.5,7.4,3.5,12.5v17.5c0,2.9,0.5,5.6,1.6,8.2h-16.3c-1.1-2.6-1.6-5.3-1.6-8.2v-17.5c0-3.7-1.8-5.4-5.4-5.4L261.1,113.3
			L261.1,113.3z M266.6,99.1c3.7,0,5.4-1.8,5.4-5.4v-5.9c0-3.7-1.8-5.4-5.4-5.4h-5.4v16.8H266.6L266.6,99.1z"/>
		<path class="st0" d="M331.8,68.2v14.1H310v16.8h16.3v14.1H310V130h21.8v14.1h-38V68.2H331.8z"/>
		<path class="st0" d="M351,136.1l-1.1,8.2h-16.3l14.7-76.1h16.3l14.7,76.1H363l-1.1-8.2H351z M359.8,122l-3.4-23.9l-3.4,23.9H359.8
			z"/>
		<path class="st0" d="M380.8,68.2h16.3v62h16.3v14.1h-32.7L380.8,68.2L380.8,68.2z"/>
	</g>
	<g>
		<path class="st0" d="M283.4,27.8H275v-1.1c0-1.8-1-2.7-2.7-2.7c-1.9,0-2.7,1-2.7,2.7v19.7c0,1.8,1,2.7,2.7,2.7
			c1.9,0,2.7-1,2.7-2.7v-6.2h-2.6v-7h10.9v12.3c0,7.2-3.7,10.9-11.1,10.9c-7.4,0-11.2-3.7-11.2-10.9V27.9c0-7.2,3.7-10.9,11.2-10.9
			C279.7,16.9,283.4,20.6,283.4,27.8z"/>
		<path class="st0" d="M294.4,40.1v15.5h-8.3V17.5h11.2c7.4,0,11.2,3.2,11.2,9.8v3c0,2.6-0.6,4.6-1.8,6.2c1.1,1.6,1.8,3.7,1.8,6.2
			v8.7c0,1.4,0.3,2.9,0.8,4.2H301c-0.5-1.3-0.8-2.6-0.8-4.2v-8.7c0-1.8-1-2.7-2.7-2.7L294.4,40.1L294.4,40.1z M297.3,33.1
			c1.9,0,2.7-1,2.7-2.7v-3c0-1.8-1-2.7-2.7-2.7h-2.7v8.5H297.3L297.3,33.1z"/>
		<path class="st0" d="M311.3,17.5h8.3v28.8c0,1.8,1,2.7,2.7,2.7c1.9,0,2.7-1,2.7-2.7V17.5h8.3v27.9c0,7.2-3.7,10.9-11.2,10.9
			c-7.4,0-11.2-3.7-11.2-10.9V17.5H311.3z M324.2,14.2h-5.6l2.7-8.2h8.3L324.2,14.2z"/>
		<path class="st0" d="M343.3,51.5l-0.6,4.2h-8.3l7.5-38.1h8.3l7.5,38.1h-8.3l-0.6-4.2H343.3z M347.8,44.5l-1.8-12l-1.8,12H347.8z"
			/>
		<path class="st0" d="M363.2,36.6c-3.2-2.7-4.6-5.6-4.6-8.7c0-7.2,3.7-10.9,11.1-10.9s11.2,3.7,11.2,10.9h-8.3
			c0.2-2.1-0.5-3.4-1.8-4c-1.4-0.5-2.6-0.2-3.7,1.1c-1.3,2.9,0.5,5.9,5.4,8.8c1.4,1,2.6,1.8,3.7,2.7c3.2,2.7,4.6,5.6,4.6,8.7
			c0,7.2-3.7,10.9-11.2,10.9c-7.4,0-11.1-3.7-11.1-10.9h8.3c-0.2,2.1,0.5,3.4,1.8,4c1.4,0.5,2.6,0.2,3.7-1.1
			c1.3-2.9-0.5-5.9-5.4-8.8C365.4,38.4,364.3,37.6,363.2,36.6z"/>
	</g>
	<path class="st1" d="M494.7,17.5l-13.3,40.1l-6.7,3.2l0,0v10.1h-7.2v14.6c0,1.8,0.6,5.4,4.6,5.9c1.9,0.3,4.2-0.8,5.6-2.9
		c2.4-4.6-0.8-8.5-0.8-8.5l2.7-4.3c0,0,8,7.2,7.7,16.5c0,2.6-1.1,5.8-4.2,8.3c-3.2,3-11.9,5.8-22.1,5.8c-6.2,0-12-1-16.3-2.6l0,0
		c0,0,0,0-0.2,0s-0.5-0.2-0.6-0.2c-0.8-0.3-1.4-0.6-2.1-1c-1-0.5-1.9-1.1-2.6-1.6c-3.2-2.6-4.5-5.9-4.5-8.7
		c-0.3-9.3,7.7-16.5,7.7-16.5l2.7,4.3c0,0-3.2,3.8-0.8,8.5c1.4,2.1,3.7,3,5.6,2.9c3.8-0.5,4.5-4.2,4.6-5.9V70.9h-7.2V60.8l-6.9-3.2
		l-13-40.1H397l46.8,127.1h34.4l47.1-127.1H494.7z"/>
</g>
</svg>
