<?xml version="1.0" encoding="utf-8"?>
<!-- Generator: Adobe Illustrator 21.1.0, SVG Export Plug-In . SVG Version: 6.00 Build 0)  -->
<svg version="1.0" id="Capa_1" xmlns="http://www.w3.org/2000/svg" xmlns:xlink="http://www.w3.org/1999/xlink" x="0px" y="0px"
	 viewBox="0 0 104 96" style="enable-background:new 0 0 104 96;" xml:space="preserve">
<style type="text/css">
	.st0{fill:#FBC900;}
</style>
<g>
	<path class="st0" d="M70.2,8l-8.3,25l-4.2,2l0,0v6.3h-4.5v9.1c0,1.1,0.4,3.4,2.9,3.7c1.2,0.2,2.6-0.5,3.5-1.8
		c1.5-2.9-0.5-5.3-0.5-5.3l1.7-2.7c0,0,5,4.5,4.8,10.3c0,1.6-0.7,3.6-2.6,5.2c-2,1.9-7.4,3.6-13.8,3.6c-3.9,0-7.5-0.6-10.2-1.6l0,0
		c0,0,0,0-0.1,0s-0.3-0.1-0.4-0.1c-0.5-0.2-0.9-0.4-1.3-0.6c-0.6-0.3-1.2-0.7-1.6-1c-2-1.6-2.8-3.7-2.8-5.4
		c-0.2-5.8,4.8-10.3,4.8-10.3l1.7,2.7c0,0-2,2.4-0.5,5.3c0.9,1.3,2.3,1.9,3.5,1.8c2.4-0.3,2.8-2.6,2.9-3.7v-9.2h-4.5V35l-4.3-2
		L28.3,8H9.2l29.2,79.3h21.5L89.3,8H70.2z"/>
</g>
</svg>
